<svg xmlns="http://www.w3.org/2000/svg" viewBox="0 0 339.2 339.2"><path fill="#f9690e" d="M247.2 169.6l84-84c5.3-5.3 8-11.7 8-19.4 0-7.6-2.7-14-8-19.4L292.4 8C287 2.7 280.6 0 273 0c-7.7 0-14 2.7-19.5 8l-84 84L85.8 8C80.3 2.7 74 0 66.2 0c-7.6 0-14 2.7-19.4 8L8 46.8c-5.3 5.4-8 11.8-8 19.4 0 7.7 2.7 14 8 19.5l84 84-84 83.8C2.7 259 0 265.3 0 273c0 7.6 2.7 14 8 19.4l38.8 38.8c5.4 5.3 11.8 8 19.4 8 7.7 0 14-2.7 19.5-8l84-84 83.8 84c5.4 5.3 11.8 8 19.5 8 7.6 0 14-2.7 19.4-8l38.8-38.8c5.3-5.4 8-11.8 8-19.5 0-7.7-2.7-14-8-19.5l-84-84z"/></svg>